<svg xmlns="http://www.w3.org/2000/svg" width="130" height="130" viewBox="0 0 130 130"><rect width="100%" height="100%" fill="#FFA500"/><path fill="#FFFFFF" d="M30.695 69.84h2.34v1.67h-7.2v-1.67h2.64v-7.58q0-.45.03-.93l-1.88 1.57q-.16.12-.32.15-.15.04-.29.01-.14-.03-.25-.1-.11-.06-.16-.14l-.7-.97 3.96-3.37h1.83v11.36Zm5.61-7.51-1.17-.21q.13-.93.52-1.64.39-.71.97-1.18t1.33-.71q.75-.24 1.62-.24.9 0 1.62.26.72.25 1.24.71.51.45.78 1.07.28.61.28 1.32 0 .62-.14 1.09-.14.47-.4.83-.26.35-.65.59t-.87.4q1.17.37 1.74 1.13.58.76.58 1.9 0 .97-.36 1.72-.36.74-.97 1.25t-1.42.77q-.8.26-1.71.26-.98 0-1.71-.22-.72-.23-1.26-.67-.54-.44-.92-1.08-.38-.64-.65-1.47l.98-.41q.39-.16.73-.08.33.07.49.36.16.32.35.62.2.31.47.55.27.23.63.38t.87.15q.56 0 .99-.18.42-.19.7-.48.29-.3.43-.67.14-.36.14-.73 0-.47-.1-.85t-.42-.65q-.31-.27-.9-.43-.59-.15-1.58-.15v-1.58q.82-.01 1.36-.16.54-.14.86-.4.32-.25.44-.61.13-.36.13-.79 0-.92-.51-1.4-.52-.48-1.37-.48-.4 0-.73.12-.33.11-.6.31-.26.2-.44.47-.18.27-.27.6-.16.41-.4.55-.25.13-.7.06ZM54.595 65q0 1.7-.37 2.96-.36 1.25-1.01 2.07-.64.82-1.52 1.22-.87.4-1.89.4t-1.89-.4q-.87-.4-1.5-1.22-.64-.82-1-2.07-.36-1.26-.36-2.96 0-1.71.36-2.96t1-2.07q.63-.82 1.5-1.22t1.89-.4q1.02 0 1.89.4.88.4 1.52 1.22.65.82 1.01 2.07.37 1.25.37 2.96Zm-2.3 0q0-1.41-.21-2.34-.2-.92-.55-1.47-.35-.55-.8-.77-.45-.22-.93-.22-.48 0-.92.22-.45.22-.79.77t-.55 1.47q-.2.93-.2 2.34 0 1.42.2 2.34.21.93.55 1.48.34.55.79.77.44.22.92.22.48 0 .93-.22.45-.22.8-.77.35-.55.55-1.48.21-.92.21-2.34Zm16.59 3.53-1.18 1.16-3.05-3.05-3.08 3.07-1.18-1.16 3.08-3.09-2.93-2.93 1.17-1.17 2.93 2.93 2.92-2.91 1.18 1.17-2.92 2.92 3.06 3.06Zm12.32 1.31h2.34v1.67h-7.2v-1.67h2.64v-7.58q0-.45.02-.93l-1.87 1.57q-.16.12-.32.15-.16.04-.3.01-.13-.03-.24-.1-.11-.06-.16-.14l-.71-.97 3.97-3.37h1.83v11.36Zm5.61-7.51-1.17-.21q.13-.93.52-1.64.39-.71.97-1.18t1.33-.71q.75-.24 1.61-.24.9 0 1.63.26.72.25 1.24.71.51.45.78 1.07.28.61.28 1.32 0 .62-.14 1.09-.14.47-.4.83-.26.35-.65.59t-.87.4q1.17.37 1.74 1.13.58.76.58 1.9 0 .97-.36 1.72-.36.74-.97 1.25-.62.51-1.42.77-.81.26-1.71.26-.98 0-1.71-.22-.73-.23-1.27-.67-.54-.44-.91-1.08-.38-.64-.65-1.47l.98-.41q.39-.16.72-.08.34.07.49.36.17.32.36.62.19.31.46.55.27.23.64.38.36.15.87.15.56 0 .99-.18.42-.19.7-.48.29-.3.43-.67.14-.36.14-.73 0-.47-.1-.85t-.42-.65q-.31-.27-.9-.43-.59-.15-1.58-.15v-1.58q.82-.01 1.36-.16.54-.14.86-.4.32-.25.44-.61.13-.36.13-.79 0-.92-.51-1.4-.52-.48-1.37-.48-.4 0-.73.12-.33.11-.6.31-.27.2-.45.47-.18.27-.27.6-.15.41-.4.55-.24.13-.69.06Zm18.28 2.67q0 1.7-.36 2.96-.36 1.25-1.01 2.07-.64.82-1.52 1.22t-1.89.4q-1.02 0-1.89-.4-.87-.4-1.51-1.22t-1-2.07q-.36-1.26-.36-2.96 0-1.71.36-2.96t1-2.07q.64-.82 1.51-1.22t1.89-.4q1.01 0 1.89.4.88.4 1.52 1.22.65.82 1.01 2.07t.36 2.96Zm-2.29 0q0-1.41-.21-2.34-.2-.92-.55-1.47-.35-.55-.8-.77-.45-.22-.93-.22-.48 0-.93.22-.44.22-.78.77-.35.55-.55 1.47-.2.93-.2 2.34 0 1.42.2 2.34.2.93.55 1.48.34.55.78.77.45.22.93.22.48 0 .93-.22.45-.22.8-.77.35-.55.55-1.48.21-.92.21-2.34Z"/></svg>